<svg version="1.1" id="Layer_1" xmlns="http://www.w3.org/2000/svg" xmlns:xlink="http://www.w3.org/1999/xlink" x="0px" y="0px"
	 width="100%" viewBox="0 0 1080 1080" enable-background="new 0 0 1080 1080" xml:space="preserve">
<path fill="#333333" opacity="1.000000" stroke="none" 
	d="
M607.000000,1081.000000 
	C404.689972,1081.000000 202.879913,1081.000000 1.034936,1081.000000 
	C1.034936,721.064819 1.034936,361.129669 1.034936,1.097249 
	C360.893616,1.097249 720.787231,1.097249 1080.840454,1.097249 
	C1080.840454,360.999939 1080.840454,720.999939 1080.840454,1081.000000 
	C923.129211,1081.000000 765.314636,1081.000000 607.000000,1081.000000 
M404.455444,898.909241 
	C441.950592,913.194946 480.608459,922.008789 520.823547,923.032288 
	C553.341248,923.859863 585.792603,923.404419 617.818970,916.462219 
	C708.873657,896.724854 784.192078,851.110962 841.709290,777.789062 
	C914.421509,685.096863 938.106689,579.551819 916.136963,464.701324 
	C898.707031,373.583130 851.858276,298.545471 778.871887,241.224854 
	C685.508362,167.900787 579.491699,143.463455 463.167969,166.056168 
	C398.930969,178.532455 342.062073,207.333542 292.298798,249.869202 
	C260.640259,276.929688 233.842331,308.246399 212.501587,344.029541 
	C182.513947,394.311432 164.534912,448.587555 159.507431,507.036133 
	C154.576233,564.365051 161.678055,620.129700 181.781509,674.066101 
	C205.576279,737.906006 243.895157,791.621033 296.056122,835.381104 
	C328.368774,862.489563 364.366455,883.472229 404.455444,898.909241 
z"/>
<path fill="#EBB95E" opacity="1.000000" stroke="none" 
	d="
M404.096802,898.773621 
	C364.366455,883.472229 328.368774,862.489563 296.056122,835.381104 
	C243.895157,791.621033 205.576279,737.906006 181.781509,674.066101 
	C161.678055,620.129700 154.576233,564.365051 159.507431,507.036133 
	C164.534912,448.587555 182.513947,394.311432 212.501587,344.029541 
	C233.842331,308.246399 260.640259,276.929688 292.298798,249.869202 
	C342.062073,207.333542 398.930969,178.532455 463.167969,166.056168 
	C579.491699,143.463455 685.508362,167.900787 778.871887,241.224854 
	C851.858276,298.545471 898.707031,373.583130 916.136963,464.701324 
	C938.106689,579.551819 914.421509,685.096863 841.709290,777.789062 
	C784.192078,851.110962 708.873657,896.724854 617.818970,916.462219 
	C585.792603,923.404419 553.341248,923.859863 520.823547,923.032288 
	C480.608459,922.008789 441.950592,913.194946 404.096802,898.773621 
M360.800354,238.231781 
	C317.417694,264.445343 280.702759,297.877686 252.001556,339.751617 
	C195.329056,422.434479 176.346527,513.346191 195.886658,611.469116 
	C212.455597,694.671814 254.763840,763.329041 321.205566,815.979797 
	C406.766357,883.781189 504.340546,907.629944 611.144531,886.091675 
	C713.787537,865.392517 792.328003,808.153809 845.430725,717.880554 
	C891.980286,638.747375 904.711670,553.351196 884.699341,463.849365 
	C864.998718,375.741486 817.411072,305.339905 743.800049,253.183685 
	C674.713074,204.232910 597.427551,183.468323 512.976685,189.836914 
	C458.719086,193.928604 408.224884,210.105713 360.800354,238.231781 
z"/>
<path fill="#333333" opacity="1.000000" stroke="none" 
	d="
M361.122742,238.059845 
	C408.224884,210.105713 458.719086,193.928604 512.976685,189.836914 
	C597.427551,183.468323 674.713074,204.232910 743.800049,253.183685 
	C817.411072,305.339905 864.998718,375.741486 884.699341,463.849365 
	C904.711670,553.351196 891.980286,638.747375 845.430725,717.880554 
	C792.328003,808.153809 713.787537,865.392517 611.144531,886.091675 
	C504.340546,907.629944 406.766357,883.781189 321.205566,815.979797 
	C254.763840,763.329041 212.455597,694.671814 195.886658,611.469116 
	C176.346527,513.346191 195.329056,422.434479 252.001556,339.751617 
	C280.702759,297.877686 317.417694,264.445343 361.122742,238.059845 
M498.611206,550.423584 
	C504.431152,528.582703 510.251099,506.741791 516.066528,484.917877 
	C509.607239,483.062195 508.892792,483.598175 507.139404,488.784943 
	C504.691742,496.025421 502.498627,503.456543 499.073059,510.238586 
	C493.225220,521.816223 483.733398,528.345947 470.220428,528.061768 
	C462.725586,527.904053 455.224670,528.033691 447.726501,528.033752 
	C444.643341,528.033752 441.560181,528.033752 437.816620,528.033752 
	C438.441711,525.032959 438.768463,522.947449 439.316223,520.921692 
	C442.141327,510.473846 445.051117,500.048920 447.878235,489.601624 
	C451.878754,474.818146 455.795441,460.011871 459.823792,445.236023 
	C461.600464,438.719177 464.599152,436.033295 470.523224,436.000702 
	C488.684875,435.900787 506.851044,435.732880 525.008301,436.030304 
	C538.515564,436.251495 547.664795,443.204285 551.889648,455.963104 
	C555.780457,467.713104 555.463989,479.908325 555.037720,492.077362 
	C554.964355,494.171753 554.215942,496.608337 557.601501,496.950989 
	C560.859497,497.280701 562.442139,495.904175 563.076782,492.656158 
	C566.939880,472.885651 570.943970,453.142731 574.877808,433.385986 
	C576.305298,426.216858 576.276062,426.207367 568.730469,426.207245 
	C516.243225,426.206238 463.755981,426.205170 411.268738,426.209076 
	C404.127777,426.209625 402.978271,427.514160 403.372345,435.586212 
	C405.090057,435.701813 406.869141,435.909027 408.649994,435.925293 
	C414.314819,435.977051 419.983063,435.850830 425.644775,435.995850 
	C431.329681,436.141418 433.257477,438.700439 431.826385,444.022003 
	C428.541534,456.237000 425.176544,468.430450 421.876129,480.641266 
	C413.796997,510.532654 405.739685,540.429932 397.666290,570.322937 
	C392.500763,589.449036 387.366486,608.583618 382.127441,627.689575 
	C380.096283,635.097046 376.943481,637.369995 369.151276,637.441711 
	C364.152924,637.487732 359.153778,637.452332 354.154999,637.452576 
	C346.755981,637.452881 345.494385,638.887512 346.130432,646.825195 
	C346.895630,646.904541 347.702393,647.061279 348.509125,647.061462 
	C406.661652,647.073303 464.814270,647.038940 522.966553,647.160217 
	C526.334961,647.167297 527.250122,645.443848 528.034912,642.940125 
	C535.802002,618.159424 543.602966,593.389221 551.265564,568.576294 
	C551.649963,567.331482 550.851318,565.721375 550.603516,564.281311 
	C548.627319,564.767395 546.530396,565.000061 544.730835,565.857117 
	C543.947571,566.230164 543.761230,567.879761 543.326843,568.958862 
	C536.899292,584.924866 529.372925,600.289551 518.786377,613.991211 
	C507.520813,628.571655 492.628021,636.714966 474.303101,637.307068 
	C455.327454,637.920227 436.316650,637.483154 417.321411,637.429749 
	C410.220215,637.409790 408.351776,634.801453 410.246155,628.019043 
	C412.037567,621.605225 413.804779,615.184448 415.549469,608.757751 
	C421.437988,587.066284 427.386627,565.390564 433.127594,543.660095 
	C434.267578,539.345093 436.039673,537.292358 440.944031,537.563354 
	C449.250031,538.022339 457.600372,537.622620 465.930786,537.709106 
	C477.328583,537.827454 483.565277,542.990723 484.244690,554.465027 
	C484.721558,562.518799 483.305237,570.673279 483.003845,578.792786 
	C482.932037,580.727966 483.422180,583.954163 484.546478,584.416626 
	C487.481689,585.624084 489.731049,584.306091 490.618469,580.664429 
	C493.021820,570.801636 495.768402,561.022400 498.611206,550.423584 
M700.913940,540.597839 
	C704.522949,527.443176 708.165283,514.297607 711.733032,501.131775 
	C716.998962,481.699524 722.177063,462.243378 727.463257,442.816650 
	C729.833923,434.104218 732.584229,432.100098 741.645996,432.085144 
	C747.311279,432.075806 752.979431,431.974915 758.640991,432.120361 
	C764.022583,432.258575 763.833801,428.047791 764.044739,424.839752 
	C764.301636,420.932343 760.812866,422.383423 758.853821,422.377991 
	C728.694702,422.294281 698.535278,422.321106 668.375916,422.320801 
	C660.797424,422.320740 659.877197,423.333221 660.164062,431.854218 
	C661.725037,431.929901 663.328796,432.071198 664.932800,432.074951 
	C673.930603,432.095917 682.928528,432.066986 691.926270,432.087799 
	C699.851929,432.106140 701.670471,434.641876 699.445190,442.345367 
	C698.014160,447.299255 696.660217,452.275940 695.315002,457.254059 
	C682.770142,503.675415 670.144531,550.075256 657.753967,596.537781 
	C654.280823,609.561646 648.646240,621.078186 638.492126,630.249756 
	C627.401978,640.266785 608.573242,642.526489 597.176941,634.894287 
	C592.373535,631.677429 589.681824,624.942566 591.072693,619.566162 
	C592.468750,614.169678 596.988281,614.648499 601.095276,614.137390 
	C610.572205,612.957886 616.954956,605.388733 617.395874,595.018616 
	C617.795593,585.617004 612.143005,578.170654 602.806091,576.385315 
	C596.566895,575.192322 590.546570,576.239014 585.046082,579.638550 
	C563.791809,592.774658 565.373413,629.846252 587.678833,642.803528 
	C602.025146,651.137390 617.117249,650.607300 632.167480,646.007874 
	C659.502930,637.654053 677.330750,618.901611 686.439514,592.315979 
	C692.144165,575.665894 695.994385,558.380432 700.913940,540.597839 
z"/>
<path fill="#E8B75E" opacity="1.000000" stroke="none" 
	d="
M498.495026,550.816833 
	C495.768402,561.022400 493.021820,570.801636 490.618469,580.664429 
	C489.731049,584.306091 487.481689,585.624084 484.546478,584.416626 
	C483.422180,583.954163 482.932037,580.727966 483.003845,578.792786 
	C483.305237,570.673279 484.721558,562.518799 484.244690,554.465027 
	C483.565277,542.990723 477.328583,537.827454 465.930786,537.709106 
	C457.600372,537.622620 449.250031,538.022339 440.944031,537.563354 
	C436.039673,537.292358 434.267578,539.345093 433.127594,543.660095 
	C427.386627,565.390564 421.437988,587.066284 415.549469,608.757751 
	C413.804779,615.184448 412.037567,621.605225 410.246155,628.019043 
	C408.351776,634.801453 410.220215,637.409790 417.321411,637.429749 
	C436.316650,637.483154 455.327454,637.920227 474.303101,637.307068 
	C492.628021,636.714966 507.520813,628.571655 518.786377,613.991211 
	C529.372925,600.289551 536.899292,584.924866 543.326843,568.958862 
	C543.761230,567.879761 543.947571,566.230164 544.730835,565.857117 
	C546.530396,565.000061 548.627319,564.767395 550.603516,564.281311 
	C550.851318,565.721375 551.649963,567.331482 551.265564,568.576294 
	C543.602966,593.389221 535.802002,618.159424 528.034912,642.940125 
	C527.250122,645.443848 526.334961,647.167297 522.966553,647.160217 
	C464.814270,647.038940 406.661652,647.073303 348.509125,647.061462 
	C347.702393,647.061279 346.895630,646.904541 346.130432,646.825195 
	C345.494385,638.887512 346.755981,637.452881 354.154999,637.452576 
	C359.153778,637.452332 364.152924,637.487732 369.151276,637.441711 
	C376.943481,637.369995 380.096283,635.097046 382.127441,627.689575 
	C387.366486,608.583618 392.500763,589.449036 397.666290,570.322937 
	C405.739685,540.429932 413.796997,510.532654 421.876129,480.641266 
	C425.176544,468.430450 428.541534,456.237000 431.826385,444.022003 
	C433.257477,438.700439 431.329681,436.141418 425.644775,435.995850 
	C419.983063,435.850830 414.314819,435.977051 408.649994,435.925293 
	C406.869141,435.909027 405.090057,435.701813 403.372345,435.586212 
	C402.978271,427.514160 404.127777,426.209625 411.268738,426.209076 
	C463.755981,426.205170 516.243225,426.206238 568.730469,426.207245 
	C576.276062,426.207367 576.305298,426.216858 574.877808,433.385986 
	C570.943970,453.142731 566.939880,472.885651 563.076782,492.656158 
	C562.442139,495.904175 560.859497,497.280701 557.601501,496.950989 
	C554.215942,496.608337 554.964355,494.171753 555.037720,492.077362 
	C555.463989,479.908325 555.780457,467.713104 551.889648,455.963104 
	C547.664795,443.204285 538.515564,436.251495 525.008301,436.030304 
	C506.851044,435.732880 488.684875,435.900787 470.523224,436.000702 
	C464.599152,436.033295 461.600464,438.719177 459.823792,445.236023 
	C455.795441,460.011871 451.878754,474.818146 447.878235,489.601624 
	C445.051117,500.048920 442.141327,510.473846 439.316223,520.921692 
	C438.768463,522.947449 438.441711,525.032959 437.816620,528.033752 
	C441.560181,528.033752 444.643341,528.033752 447.726501,528.033752 
	C455.224670,528.033691 462.725586,527.904053 470.220428,528.061768 
	C483.733398,528.345947 493.225220,521.816223 499.073059,510.238586 
	C502.498627,503.456543 504.691742,496.025421 507.139404,488.784943 
	C508.892792,483.598175 509.607239,483.062195 516.066528,484.917877 
	C510.251099,506.741791 504.431152,528.582703 498.495026,550.816833 
z"/>
<path fill="#E9B85E" opacity="1.000000" stroke="none" 
	d="
M700.795288,540.988892 
	C695.994385,558.380432 692.144165,575.665894 686.439514,592.315979 
	C677.330750,618.901611 659.502930,637.654053 632.167480,646.007874 
	C617.117249,650.607300 602.025146,651.137390 587.678833,642.803528 
	C565.373413,629.846252 563.791809,592.774658 585.046082,579.638550 
	C590.546570,576.239014 596.566895,575.192322 602.806091,576.385315 
	C612.143005,578.170654 617.795593,585.617004 617.395874,595.018616 
	C616.954956,605.388733 610.572205,612.957886 601.095276,614.137390 
	C596.988281,614.648499 592.468750,614.169678 591.072693,619.566162 
	C589.681824,624.942566 592.373535,631.677429 597.176941,634.894287 
	C608.573242,642.526489 627.401978,640.266785 638.492126,630.249756 
	C648.646240,621.078186 654.280823,609.561646 657.753967,596.537781 
	C670.144531,550.075256 682.770142,503.675415 695.315002,457.254059 
	C696.660217,452.275940 698.014160,447.299255 699.445190,442.345367 
	C701.670471,434.641876 699.851929,432.106140 691.926270,432.087799 
	C682.928528,432.066986 673.930603,432.095917 664.932800,432.074951 
	C663.328796,432.071198 661.725037,431.929901 660.164062,431.854218 
	C659.877197,423.333221 660.797424,422.320740 668.375916,422.320801 
	C698.535278,422.321106 728.694702,422.294281 758.853821,422.377991 
	C760.812866,422.383423 764.301636,420.932343 764.044739,424.839752 
	C763.833801,428.047791 764.022583,432.258575 758.640991,432.120361 
	C752.979431,431.974915 747.311279,432.075806 741.645996,432.085144 
	C732.584229,432.100098 729.833923,434.104218 727.463257,442.816650 
	C722.177063,462.243378 716.998962,481.699524 711.733032,501.131775 
	C708.165283,514.297607 704.522949,527.443176 700.795288,540.988892 
z"/>
</svg>